<?xml version="1.0" standalone="no"?>
<!DOCTYPE svg PUBLIC "-//W3C//DTD SVG 20010904//EN"
 "http://www.w3.org/TR/2001/REC-SVG-20010904/DTD/svg10.dtd">
<svg version="1.0" xmlns="http://www.w3.org/2000/svg"
 width="512.000000pt" height="512.000000pt" viewBox="0 0 512.000000 512.000000"
 preserveAspectRatio="xMidYMid meet">

<g transform="translate(0.000000,512.000000) scale(0.100000,-0.100000)"
fill="#000000" stroke="none">
<path d="M3065 4640 c3 -5 13 -10 21 -10 8 0 12 5 9 10 -3 6 -13 10 -21 10 -8
0 -12 -4 -9 -10z"/>
<path d="M3129 4630 c-20 -16 -21 -19 -7 -20 19 0 40 -9 188 -77 286 -133 499
-302 675 -538 71 -95 195 -316 195 -347 0 -8 11 -35 24 -59 28 -55 38 -109 19
-109 -18 0 -17 -25 2 -40 12 -10 15 -10 15 4 0 9 7 16 15 16 22 0 19 -40 -2
-41 -15 0 -14 -3 5 -16 26 -18 28 -30 6 -54 -14 -16 -14 -18 5 -29 14 -7 23
-25 27 -51 4 -21 11 -42 15 -45 5 -3 9 -18 9 -34 0 -22 -7 -32 -27 -42 -46
-22 -39 -77 11 -79 20 0 19 -1 -3 -10 -14 -5 -31 -19 -39 -30 -11 -15 -21 -19
-42 -14 -25 6 -28 4 -23 -15 4 -16 11 -20 27 -16 24 6 91 -48 81 -65 -8 -12
-35 -12 -35 1 0 5 -10 14 -21 21 -20 10 -21 9 -15 -15 6 -23 3 -26 -19 -26
-15 0 -47 11 -72 26 -25 14 -52 23 -59 20 -8 -3 -21 -3 -29 0 -13 5 -13 9 -3
22 11 13 6 14 -43 8 -52 -7 -57 -5 -62 13 -3 13 -13 21 -25 21 -24 0 -68 55
-52 65 19 12 10 31 -22 46 -36 16 -48 43 -118 252 -72 216 -186 416 -297 518
-224 207 -594 348 -1018 388 -206 20 -496 -10 -699 -70 -39 -12 -94 -27 -122
-35 -48 -12 -119 -43 -282 -122 -34 -17 -76 -33 -93 -37 -16 -4 -45 -22 -63
-41 -34 -35 -66 -45 -66 -20 0 8 5 16 11 18 22 7 19 60 -4 79 -21 18 -21 19
-3 34 11 8 16 20 12 31 -9 24 -54 10 -96 -32 -20 -19 -41 -34 -47 -34 -17 0
-73 -60 -88 -96 -15 -34 -54 -82 -99 -123 -70 -64 -256 -388 -305 -531 -13
-36 -33 -87 -47 -113 -13 -26 -23 -58 -22 -70 0 -12 -6 -42 -15 -67 -8 -25
-21 -74 -27 -110 -6 -36 -16 -74 -20 -85 -7 -16 -23 -226 -22 -300 1 -156 36
-421 62 -467 6 -10 10 -35 10 -57 0 -22 6 -44 15 -51 8 -7 15 -18 15 -25 0 -7
11 -20 25 -29 14 -9 25 -25 25 -35 0 -10 7 -24 15 -31 8 -7 15 -21 15 -32 0
-11 6 -32 14 -46 8 -15 24 -47 36 -72 12 -25 29 -59 39 -76 10 -16 22 -41 26
-55 4 -13 11 -26 15 -29 4 -3 19 -31 33 -63 17 -37 34 -61 47 -64 13 -4 20
-14 20 -30 0 -14 8 -37 19 -51 10 -15 22 -37 25 -49 4 -13 14 -23 21 -23 8 0
23 -17 34 -37 41 -80 327 -376 421 -435 36 -23 78 -52 94 -66 17 -13 57 -37
90 -54 34 -16 95 -47 136 -68 41 -21 81 -39 89 -39 7 -1 48 -17 90 -37 127
-60 133 -62 236 -80 55 -9 105 -20 110 -24 6 -4 42 -11 80 -14 133 -11 170
-18 188 -34 29 -25 458 -17 547 10 19 6 67 17 105 25 39 8 90 18 115 23 73 14
133 30 173 45 53 21 71 19 64 -5 -6 -21 0 -25 21 -11 9 5 11 17 6 34 -5 23 -3
27 14 27 11 0 33 6 49 14 15 7 96 47 178 87 83 40 173 91 200 114 28 22 67 53
88 69 21 15 101 90 177 165 106 104 143 135 155 129 17 -10 21 7 5 17 -7 4 12
33 45 70 30 35 55 66 55 70 0 4 14 20 30 37 21 21 30 25 30 14 0 -9 5 -16 10
-16 13 0 13 33 -1 47 -7 7 -4 20 10 44 11 19 32 57 46 84 15 28 32 55 38 60
20 17 67 112 83 167 9 28 24 67 35 87 10 20 19 44 19 55 0 10 13 57 29 105 33
97 47 160 61 276 10 79 26 262 29 320 0 17 4 61 7 99 3 40 2 78 -5 90 -9 19
-28 167 -35 271 -3 43 -9 64 -32 108 -7 16 -14 38 -14 50 0 12 -6 34 -14 49
-8 15 -17 41 -21 59 -10 44 -84 221 -100 239 -8 8 -28 44 -45 80 -43 87 -47
95 -104 175 -187 265 -455 501 -756 664 -85 46 -132 69 -235 116 -17 8 -50 18
-74 24 -24 5 -48 14 -54 20 -6 6 -21 11 -33 11 -12 0 -36 11 -52 25 -36 30
-52 31 -83 5z m-2029 -640 c0 -5 -7 -10 -15 -10 -8 0 -15 5 -15 10 0 6 7 10
15 10 8 0 15 -4 15 -10z m-30 -66 c0 -16 -26 -19 -35 -4 -3 6 -4 14 0 20 8 13
35 1 35 -16z m-260 -154 c0 -26 -38 -47 -46 -25 -7 18 12 45 32 45 8 0 14 -9
14 -20z m-76 -83 c-12 -21 -37 -47 -45 -47 -7 0 4 26 24 58 10 15 30 5 21 -11z
m-94 -148 c0 -21 -51 -105 -70 -117 -27 -16 -26 -1 2 52 36 66 68 97 68 65z
m2779 -115 c50 -42 166 -263 235 -446 42 -112 54 -198 36 -252 -24 -73 -75
-71 -173 7 -36 29 -126 99 -199 156 -149 117 -243 203 -264 243 -16 31 -18 85
-4 122 12 31 123 124 198 165 74 39 128 41 171 5z m-2869 -48 c0 -15 -18 -31
-26 -23 -7 7 7 37 17 37 5 0 9 -6 9 -14z m4069 -147 c15 -34 10 -45 -15 -35
-9 3 -14 13 -10 21 3 8 1 17 -4 20 -6 4 -10 13 -10 20 0 23 24 7 39 -26z m49
-126 c2 -8 -5 -13 -17 -13 -12 0 -21 6 -21 16 0 18 31 15 38 -3z m-1886 -51
c76 -46 91 -72 117 -207 49 -251 51 -376 10 -496 -28 -80 -55 -124 -107 -171
-67 -61 -124 -82 -219 -82 -74 0 -89 4 -156 37 -46 23 -111 69 -169 119 -228
200 -314 366 -244 476 60 95 264 239 459 324 153 66 200 66 309 0z m1318 -167
c0 -15 -80 -26 -95 -13 -15 13 7 23 54 24 27 1 41 -3 41 -11z m70 -9 c0 -3 -4
-8 -10 -11 -5 -3 -10 -1 -10 4 0 6 5 11 10 11 6 0 10 -2 10 -4z m122 -11 c0
-5 -5 -11 -11 -13 -6 -2 -11 4 -11 13 0 9 5 15 11 13 6 -2 11 -8 11 -13z m-42
-9 c0 -8 -4 -17 -9 -21 -12 -7 -24 12 -16 25 9 15 25 12 25 -4z m-2530 -438
c89 -45 131 -141 194 -443 9 -44 21 -96 26 -116 35 -129 -23 -340 -112 -410
-100 -80 -237 -95 -350 -38 -72 37 -210 198 -281 329 -45 82 -87 210 -87 264
0 113 126 244 355 371 125 69 184 79 255 43z m2887 -334 c-9 -9 -28 6 -21 18
4 6 10 6 17 -1 6 -6 8 -13 4 -17z m-2 -44 c3 -5 -1 -10 -9 -10 -9 0 -16 5 -16
10 0 6 4 10 9 10 6 0 13 -4 16 -10z m-195 -310 c0 -5 -4 -10 -10 -10 -5 0 -10
5 -10 10 0 6 5 10 10 10 6 0 10 -4 10 -10z m104 1 c3 -5 -1 -14 -9 -21 -13
-10 -15 -9 -15 9 0 21 14 28 24 12z m-148 -60 c-10 -16 -36 -13 -36 3 0 17 21
27 34 16 4 -5 5 -13 2 -19z m118 -12 c-3 -5 -10 -7 -15 -3 -5 3 -7 10 -3 15 3
5 10 7 15 3 5 -3 7 -10 3 -15z m-26 -38 c6 -38 -16 -50 -39 -21 -20 23 -20 25
-3 37 24 17 38 12 42 -16z m-138 -76 c0 -8 -6 -15 -14 -15 -17 0 -28 14 -19
24 12 12 33 6 33 -9z m140 -2 c-1 -23 -23 -53 -40 -53 -8 0 -10 8 -6 23 3 12
6 28 6 35 0 6 9 12 20 12 13 0 20 -7 20 -17z m-70 -129 c0 -8 -5 -12 -10 -9
-6 4 -8 11 -5 16 9 14 15 11 15 -7z m-50 -38 c0 -56 -8 -76 -29 -76 -21 0 -56
56 -41 65 6 4 15 18 20 31 6 14 18 24 30 24 17 0 20 -6 20 -44z m-155 -56 c-3
-5 -10 -10 -16 -10 -5 0 -9 5 -9 10 0 6 7 10 16 10 8 0 12 -4 9 -10z m-77
-112 c4 -21 -36 -44 -50 -30 -14 14 9 54 30 50 9 -2 18 -11 20 -20z m-88 -8
c0 -5 -4 -10 -10 -10 -5 0 -10 5 -10 10 0 6 5 10 10 10 6 0 10 -4 10 -10z
m186 -25 c7 -18 -12 -45 -32 -45 -14 0 -20 41 -7 53 11 12 33 7 39 -8z m-50
-56 c3 -6 1 -15 -7 -19 -14 -9 -49 5 -49 20 0 14 47 13 56 -1z m-51 -69 c3 -5
-1 -10 -10 -10 -9 0 -13 5 -10 10 3 6 8 10 10 10 2 0 7 -4 10 -10z m-307 -161
c-2 -6 -8 -10 -13 -10 -5 0 -11 4 -13 10 -2 6 4 11 13 11 9 0 15 -5 13 -11z
m102 1 c0 -14 -38 -50 -52 -50 -7 0 -4 7 7 16 11 8 19 22 17 30 -2 8 4 14 13
14 8 0 15 -4 15 -10z"/>
<path d="M1534 4465 c-10 -8 -14 -14 -9 -15 15 0 40 18 34 24 -3 3 -14 -1 -25
-9z"/>
<path d="M2870 4465 c0 -16 16 -20 24 -6 3 5 -1 11 -9 15 -9 3 -15 0 -15 -9z"/>
<path d="M2405 4460 c3 -5 8 -10 11 -10 2 0 4 5 4 10 0 6 -5 10 -11 10 -5 0
-7 -4 -4 -10z"/>
<path d="M1359 4367 c-19 -12 -55 -35 -81 -50 -60 -35 -65 -45 -32 -57 34 -13
91 -3 75 13 -21 21 -11 36 34 57 45 21 79 60 52 60 -8 0 -29 -10 -48 -23z"/>
<path d="M1780 4330 c0 -5 5 -10 11 -10 5 0 7 5 4 10 -3 6 -8 10 -11 10 -2 0
-4 -4 -4 -10z"/>
<path d="M3231 4300 c-9 -5 -8 -9 5 -14 9 -4 21 -3 26 2 12 12 -15 23 -31 12z"/>
<path d="M3502 4228 c6 -18 28 -21 28 -4 0 9 -7 16 -16 16 -9 0 -14 -5 -12
-12z"/>
<path d="M1223 4203 c-7 -2 -13 -11 -13 -19 0 -16 42 -4 48 14 4 12 -13 15
-35 5z"/>
<path d="M1300 4195 c-10 -13 -9 -15 9 -15 11 0 21 4 21 9 0 18 -18 21 -30 6z"/>
<path d="M3685 4070 c3 -5 8 -10 11 -10 2 0 4 5 4 10 0 6 -5 10 -11 10 -5 0
-7 -4 -4 -10z"/>
<path d="M3980 3465 c0 -3 6 -14 12 -25 10 -16 10 -24 0 -40 -21 -34 -13 -42
15 -16 22 21 24 27 14 40 -7 9 -11 23 -7 31 4 10 -1 15 -14 15 -11 0 -20 -2
-20 -5z"/>
<path d="M4060 3430 c0 -5 5 -10 11 -10 5 0 7 5 4 10 -3 6 -8 10 -11 10 -2 0
-4 -4 -4 -10z"/>
<path d="M4150 3404 c0 -8 5 -12 10 -9 6 3 10 10 10 16 0 5 -4 9 -10 9 -5 0
-10 -7 -10 -16z"/>
<path d="M4100 3041 c0 -14 18 -23 31 -15 8 4 7 9 -2 15 -18 11 -29 11 -29 0z"/>
<path d="M660 1401 c0 -6 4 -13 10 -16 6 -3 7 1 4 9 -7 18 -14 21 -14 7z"/>
<path d="M760 1256 c0 -9 7 -16 16 -16 17 0 14 22 -4 28 -7 2 -12 -3 -12 -12z"/>
</g>
</svg>
